<svg width="520" height="366" fill="none" xmlns="http://www.w3.org/2000/svg"><path d="M255.293 366c-3.323 0-7.199-.179-11.63-.537-4.43-.359-7.937-.538-10.521-.538-2.954 0-6.83.179-11.63.538-4.43.358-7.937.537-10.522.537l11.63-271.41L61.47 319.78 59.808 366c-2.953 0-6.83-.179-11.63-.537-4.43-.359-7.937-.538-10.52-.538-2.954 0-6.83.179-11.63.538-4.43.358-7.938.537-10.522.537L29.35 38.159c1.108-22.573-8.122-33.86-27.689-33.86H0V0h18.828c2.585 0 8.123.358 16.614 1.075 8.491.358 15.321.537 20.49.537 5.907 0 13.844-.179 23.812-.537C89.712.358 95.804 0 98.02 0h13.291v4.3h-4.984c-9.23.358-16.983 3.403-23.259 9.136-6.276 5.733-9.599 13.795-9.968 24.185L60.916 312.256 222.62 84.916l2.215-46.757c1.107-22.573-8.122-33.86-27.689-33.86h-1.661V0h18.828c2.584 0 8.307.358 17.167 1.075 9.23.358 16.429.537 21.598.537 5.907 0 13.66-.179 23.259-.537C285.935.358 291.658 0 293.504 0h13.29v4.3h-4.984c-9.229.358-16.982 3.583-23.258 9.674-5.907 5.732-9.045 13.794-9.415 24.185L256.4 312.256l169.457-239.7c14.029-19.707 21.044-34.04 21.044-42.996 0-16.84-9.414-25.26-28.243-25.26h-4.984V0h12.737c4.061 0 11.076.358 21.044 1.075 9.968.358 16.798.537 20.49.537 3.322 0 10.152-.179 20.489-.537C498.772.358 505.417 0 508.371 0H520v4.3h-3.323c-23.628 0-52.24 23.647-85.836 70.942L256.4 320.317 255.293 366z" fill="#98433F"/></svg>